<?xml version="1.0" encoding="utf-8"?>
<svg version="1.1" xmlns:xlink="http://www.w3.org/1999/xlink" width="90px" height="28px" xmlns="http://www.w3.org/2000/svg">
  <defs>
    <mask fill="white" id="clip25">
      <path d="M 90 24  L 90 4  C 90 1.76  87.525 0  84.375 0  L 0 0  L 0 28  L 84.375 28  C 87.525 28  90 26.24  90 24  Z " fill-rule="evenodd" />
    </mask>
  </defs>
  <g transform="matrix(1 0 0 1 -1448 -103 )">
    <path d="M 90 24  L 90 4  C 90 1.76  87.525 0  84.375 0  L 0 0  L 0 28  L 84.375 28  C 87.525 28  90 26.24  90 24  Z " fill-rule="nonzero" fill="#ffffff" stroke="none" transform="matrix(1 0 0 1 1448 103 )" />
    <path d="M 90 24  L 90 4  C 90 1.76  87.525 0  84.375 0  L 0 0  L 0 28  L 84.375 28  C 87.525 28  90 26.24  90 24  Z " stroke-width="2" stroke="#d9d9d9" fill="none" transform="matrix(1 0 0 1 1448 103 )" mask="url(#clip25)" />
  </g>
</svg>