<?xml version="1.0" standalone="no"?><!DOCTYPE svg PUBLIC "-//W3C//DTD SVG 1.1//EN" "http://www.w3.org/Graphics/SVG/1.1/DTD/svg11.dtd"><svg t="1581387532807" class="icon" viewBox="0 0 1024 1024" version="1.1" xmlns="http://www.w3.org/2000/svg" p-id="6394" width="64" height="64" xmlns:xlink="http://www.w3.org/1999/xlink"><defs><style type="text/css"></style></defs><path d="M901 513.5c0 19.1-1.3 38.1-3.8 57 0.4-2.7 0.7-5.3 1.1-8-5 36.2-14.6 71.5-28.7 105.2l3-7.2c-8.6 20.3-18.7 39.9-30.3 58.7-5.8 9.3-11.9 18.4-18.4 27.2-1.6 2.1-3.1 4.2-4.7 6.3 6.7-8.8 0.6-0.9-1 1.2-3.5 4.4-7.2 8.8-10.9 13.1-14.3 16.5-30 31.8-46.6 45.9-4 3.4-8.1 6.7-12.2 9.9-4.2 3.3 6.2-4.7 1.9-1.5-1 0.8-2.1 1.6-3.1 2.4-2.5 1.8-4.9 3.6-7.4 5.4-8.9 6.4-18.1 12.4-27.5 18-17 10.2-34.8 19.2-53.1 26.9l7.2-3c-33.7 14.1-69 23.7-105.2 28.7 2.7-0.4 5.3-0.7 8-1.1-37.8 5.1-76.1 5.1-113.9 0 2.7 0.4 5.3 0.7 8 1.1-36.2-5-71.5-14.6-105.2-28.7l7.2 3c-20.3-8.6-39.9-18.7-58.7-30.3-9.3-5.8-18.4-11.9-27.2-18.4-2.1-1.6-4.2-3.1-6.3-4.7 8.8 6.7 0.9 0.6-1.2-1-4.4-3.5-8.8-7.2-13.1-10.9-16.5-14.3-31.8-30-45.9-46.6-3.4-4-6.7-8.1-9.9-12.2-3.3-4.2 4.7 6.2 1.5 1.9-0.8-1-1.6-2.1-2.4-3.1-1.8-2.5-3.6-4.9-5.4-7.4-6.4-8.9-12.4-18.1-18-27.5-10.2-17-19.2-34.8-26.9-53.1l3 7.2c-14.1-33.7-23.7-69-28.7-105.2 0.4 2.7 0.7 5.3 1.1 8-5.1-37.8-5.1-76.1 0-113.9-0.4 2.7-0.7 5.3-1.1 8 5-36.2 14.6-71.5 28.7-105.2l-3 7.2c8.6-20.3 18.7-39.9 30.3-58.7 5.8-9.3 11.9-18.4 18.4-27.2 1.6-2.1 3.1-4.2 4.7-6.3-6.7 8.8-0.6 0.9 1-1.2 3.5-4.4 7.2-8.8 10.9-13.1 14.3-16.5 30-31.8 46.6-45.9 4-3.4 8.1-6.7 12.2-9.9 4.2-3.3-6.2 4.7-1.9 1.5 1-0.8 2.1-1.6 3.1-2.4 2.5-1.8 4.9-3.6 7.4-5.4 8.9-6.4 18.1-12.4 27.5-18 17-10.2 34.8-19.2 53.1-26.9l-7.2 3c33.7-14.1 69-23.7 105.2-28.7-2.7 0.4-5.3 0.7-8 1.1 37.8-5.1 76.1-5.1 113.9 0-2.7-0.4-5.3-0.7-8-1.1 36.2 5 71.5 14.6 105.2 28.7l-7.2-3c20.3 8.6 39.9 18.7 58.7 30.3 9.3 5.8 18.4 11.9 27.2 18.4 2.1 1.6 4.2 3.1 6.3 4.7-8.8-6.7-0.9-0.6 1.2 1 4.4 3.5 8.8 7.2 13.1 10.9 16.5 14.3 31.8 30 45.9 46.6 3.4 4 6.7 8.1 9.9 12.2 3.3 4.2-4.7-6.2-1.5-1.9 0.8 1 1.6 2.1 2.4 3.1 1.8 2.5 3.6 4.9 5.4 7.4 6.4 8.9 12.4 18.1 18 27.5 10.2 17 19.2 34.8 26.9 53.1l-3-7.2c14.1 33.7 23.7 69 28.7 105.2-0.4-2.7-0.7-5.3-1.1-8 2.5 18.8 3.8 37.8 3.8 56.9 0 16.4 13.6 30 30 30 16.3 0 30-13.6 30-30-0.2-94.3-30.1-188.3-86.2-264.3C818.4 172.7 740.1 115.5 649.6 86c-90.9-29.7-192.5-28.6-282.8 2.6-89.9 31-167 89.8-222.2 167C89.7 332.5 61.4 427.7 63.1 522c1.7 94 33.5 187.4 90.8 262.1 29.4 38.4 63.7 71.4 103.4 99.1 37.9 26.5 80.6 46.7 124.8 60.2 91.4 27.9 193 25.2 282.7-7.7C754 903 830.3 843.2 884 764.9c50.4-73.4 76.9-162.6 77-251.4 0-16.4-13.7-30-30-30-16.4 0-30 13.6-30 30z" fill="#bfbfbf" p-id="6395"></path><path d="M725.4 629c-45-18.9-92.4-31.5-140.8-37.4l34.7 74.7-49.8 101.1c47.6-2.1 97.5-6.5 145.1-13.1 16.5-3.5 29.2-16.5 32.5-33 2.2-17.5 4.3-35.2 6.5-50.5-0.7-18.3-11.6-34.5-28.2-41.8z m-288.1-39.6c-47.6 6.7-94.1 19.2-138.6 37.3-15.5 8.3-25.4 24.2-26 41.7 2.1 17.6 4.3 35.2 6.5 50.6 3.2 16.5 16 29.5 32.5 32.9 47.7 6.5 95.3 10.9 142.9 13.2L404.8 664l32.5-74.6z m93.1 24.1h-39l-19.4 22 19.4 48.4-13 83.5h65l-13-83.5 21.7-48.4-21.7-22z m47.6-85.7c10.3-6.7 18-16.8 21.7-28.5 2.2-10.9 2.2-24.1 4.3-35.2 1.7 1.7 4.1 2.5 6.5 2.2 5.4 0.5 10.2-3.4 10.8-8.8l6.5-55c0.6-5.4-3.3-10.3-8.7-11-2.4-0.3-4.8 0.5-6.5 2.2 2.2-11 2.2-19.8 4.3-30.8 0-13.2 8.7-52.8-19.4-77-41.1-39.6-127.8-39.6-166.8-2.2-26 24.2-19.4 63.8-19.4 77 2.1 11 2.1 19.8 4.3 30.8-2.2 0-4.3-2.2-6.5-2.2-5.4 0.6-9.3 5.4-8.7 10.8v0.2l4.3 57.1c0.5 5.4 5.2 9.3 10.6 8.8h0.3c2.2 0 4.3-2.2 6.5-2.2 2.6 11.6 4.1 23.3 4.3 35.2 0 8.8 8.7 19.7 21.7 28.5 2.1 17.6 4.3 35.2 6.5 50.6 0 6.7 13 17.5 26 19.7 20.9 2.2 41.9 2.2 62.8 0 13-2.3 26-13.2 26-19.7 4-16.6 6.9-33.5 8.6-50.5z" fill="#bfbfbf" p-id="6396"></path></svg>