<?xml version="1.0" encoding="utf-8"?>
<svg version="1.1" xmlns:xlink="http://www.w3.org/1999/xlink" width="14px" height="14px" xmlns="http://www.w3.org/2000/svg">
  <g transform="matrix(1 0 0 1 -144 -382 )">
    <path d="M 151 382  C 154.92 382  158 385.08  158 389  C 158 392.92  154.92 396  151 396  C 147.08 396  144 392.92  144 389  C 144 385.08  147.08 382  151 382  Z " fill-rule="nonzero" fill="#ffffff" stroke="none" fill-opacity="0" />
    <path d="M 151 382.5  C 154.64 382.5  157.5 385.36  157.5 389  C 157.5 392.64  154.64 395.5  151 395.5  C 147.36 395.5  144.5 392.64  144.5 389  C 144.5 385.36  147.36 382.5  151 382.5  Z " stroke-width="1" stroke="#d9d9d9" fill="none" />
  </g>
</svg>