<?xml version="1.0" encoding="utf-8"?>
<svg version="1.1" xmlns:xlink="http://www.w3.org/1999/xlink" width="1434px" height="32px" xmlns="http://www.w3.org/2000/svg">
  <g transform="matrix(1 0 0 1 -53 -728 )">
    <path d="M 54 732  A 3 3 0 0 1 57 729 L 1483 729  A 3 3 0 0 1 1486 732 L 1486 756  A 3 3 0 0 1 1483 759 L 57 759  A 3 3 0 0 1 54 756 L 54 732  Z " fill-rule="nonzero" fill="#ffffff" stroke="none" />
    <path d="M 53.5 732  A 3.5 3.5 0 0 1 57 728.5 L 1483 728.5  A 3.5 3.5 0 0 1 1486.5 732 L 1486.5 756  A 3.5 3.5 0 0 1 1483 759.5 L 57 759.5  A 3.5 3.5 0 0 1 53.5 756 L 53.5 732  Z " stroke-width="1" stroke-dasharray="9,4" stroke="#d9d9d9" fill="none" stroke-dashoffset="0.5" />
  </g>
</svg>